<?xml version="1.0" encoding="utf-8"?>
<!-- Generator: Adobe Illustrator 17.0.0, SVG Export Plug-In . SVG Version: 6.00 Build 0)  -->
<!DOCTYPE svg PUBLIC "-//W3C//DTD SVG 1.1//EN" "http://www.w3.org/Graphics/SVG/1.1/DTD/svg11.dtd">
<svg version="1.1" id="Layer_1" xmlns="http://www.w3.org/2000/svg" xmlns:xlink="http://www.w3.org/1999/xlink" x="0px" y="0px"
	 width="168px" height="319px" viewBox="55.384 -0.898 168 319" enable-background="new 55.384 -0.898 168 319"
	 xml:space="preserve">
<g>
	<g>
		<path fill="#FFFFFF" d="M163.971,40.624c-1.627-0.238-2.377-1.171-2.413-2.557c-0.033-1.276,0.33-2.404,1.944-2.839
			c-0.915-1.476-1.422-3.022-1.558-4.642c-0.138-1.64-0.167-3.288-0.209-4.933c-0.028-1.064-0.181-2.141-0.158-3.18
			c0.107-4.908,0.484-9.804,1.145-14.684c0.287-2.12,1.333-3.66,3.196-4.853c2.029-1.3,4.288-2.022,6.7-2.392
			c3.299-0.506,6.612-0.448,9.914-0.07c1.714,0.196,3.376-0.082,5.055-0.228c3.939-0.343,7.867-0.443,11.738,0.491
			c2.521,0.608,4.758,1.684,6.55,3.469c0.555,0.553,0.962,1.158,1.082,1.905c0.266,1.659,0.598,3.313,0.772,4.981
			c0.706,6.788,0.913,13.596,0.931,20.411c0.019,7.004,0.105,14.008,0.09,21.012c-0.012,5.894-0.103,11.789-0.203,17.682
			c-0.109,6.463-0.263,12.926-0.409,19.389c-0.13,5.734-0.274,11.468-0.415,17.202c-0.127,5.164-0.205,10.329-0.407,15.49
			c-0.138,3.513-0.468,7.019-0.685,10.53c-0.338,5.479-0.519,10.956,0.525,16.397c0.433,2.255,1.111,4.443,2.262,6.491
			c2.407,4.283,6.274,6.527,11.471,6.919c0.513,0.039,1.025,0.09,1.599,0.141c0.242,2.143-0.37,3.944-2.278,5.214
			c-0.885,0.589-1.903,1.022-2.89,1.471c-1.329,0.604-2.725,1.092-4.025,1.743c-1.955,0.98-3.171,2.499-3.556,4.546
			c-0.186,0.989,0.015,1.486,0.955,1.989c0.536,0.286,1.123,0.49,1.666,0.765c0.718,0.365,0.793,0.562,0.694,1.294
			c-0.046,0.343-0.052,0.695-0.033,1.04c0.194,3.576,0.375,7.152,0.602,10.726c0.293,4.617,0.64,9.231,0.934,13.848
			c0.189,2.973,0.368,5.948,0.471,8.924c0.172,4.94,0.386,9.882,0.383,14.824c-0.003,4.592-0.136,9.191-0.439,13.774
			c-0.738,11.136-2.703,22.083-6.446,32.728c-4.689,13.337-11.96,25.379-21.619,36.22c-1.421,1.595-2.918,3.132-4.377,4.698
			c-0.155,0.166-0.29,0.348-0.534,0.644c-0.172-0.386-0.293-0.595-0.36-0.818c-2.44-8.058-4.579-16.183-6.212-24.41
			c-1.261-6.353-2.41-12.728-3.454-19.114c-0.727-4.445-1.261-8.92-1.754-13.393c-0.6-5.451-1.091-10.912-1.581-16.372
			c-0.227-2.525-0.366-5.058-0.496-7.59c-0.271-5.285-0.548-10.57-0.75-15.857c-0.148-3.863-0.203-7.73-0.259-11.596
			c-0.06-4.151-0.107-8.303-0.098-12.455c0.018-9.031,0.074-18.063,0.115-27.094c0.001-0.317-0.017-0.636,0.012-0.951
			c0.064-0.69-0.161-1.273-0.552-1.872c-1.569-2.401-2.396-5.042-2.792-7.798c-0.535-3.731-0.356-7.461,0.116-11.186
			c0.151-1.195,0.309-2.39,0.47-3.584c0.03-0.219,0.072-0.439,0.137-0.651c0.262-0.857,0.303-0.915-0.555-1.361
			c-0.706-0.367-0.896-0.849-0.912-1.54c-0.094-3.896-0.237-7.792-0.338-11.688c-0.17-6.557-0.326-13.115-0.479-19.673
			c-0.08-3.422-0.146-6.843-0.206-10.265c-0.129-7.351-0.249-14.702-0.376-22.053c-0.079-4.594-0.165-9.188-0.248-13.782
			c-0.069-3.802-0.138-7.604-0.208-11.406c-0.045-2.471-0.03-4.945-0.166-7.412c-0.064-1.167,0.665-1.687,1.489-2.026
			c0.437-0.18,0.903-0.302,1.356-0.45C163.921,40.745,163.946,40.685,163.971,40.624z"/>
	</g>
	<g>
		<path fill="#FFFFFF" d="M60.472,40.628c-1.613-0.247-2.374-1.167-2.413-2.558c-0.036-1.281,0.351-2.393,1.933-2.856
			c-0.752-1.236-1.222-2.519-1.435-3.875c-0.108-0.689-0.248-1.38-0.274-2.073c-0.098-2.612-0.291-5.23-0.199-7.838
			c0.161-4.557,0.513-9.106,1.138-13.638c0.286-2.077,1.285-3.61,3.111-4.799c2.049-1.334,4.336-2.074,6.784-2.449
			c3.299-0.506,6.613-0.448,9.915-0.07c1.713,0.196,3.375-0.082,5.055-0.228c3.939-0.341,7.866-0.442,11.738,0.491
			c2.594,0.625,4.881,1.742,6.688,3.611c0.473,0.489,0.817,1.028,0.923,1.67c0.281,1.689,0.617,3.375,0.794,5.074
			c0.707,6.787,0.913,13.596,0.931,20.411c0.018,6.972,0.106,13.944,0.092,20.916c-0.012,5.926-0.103,11.852-0.204,17.777
			c-0.109,6.463-0.263,12.926-0.409,19.389c-0.13,5.734-0.273,11.468-0.414,17.202c-0.13,5.29-0.214,10.582-0.416,15.87
			c-0.129,3.355-0.451,6.703-0.664,10.055c-0.351,5.51-0.534,11.019,0.514,16.492c0.462,2.414,1.2,4.751,2.502,6.911
			c2.399,3.98,6.13,6.062,11.02,6.488c0.447,0.039,0.895,0.068,1.342,0.109c0.135,0.012,0.267,0.047,0.461,0.083
			c0.221,1.685-0.113,3.243-1.436,4.47c-0.691,0.641-1.552,1.162-2.417,1.602c-1.023,0.52-2.149,0.865-3.203,1.339
			c-0.99,0.445-1.987,0.896-2.903,1.453c-1.647,1.002-2.506,2.49-2.827,4.257c-0.133,0.735,0.117,1.325,0.826,1.7
			c0.567,0.3,1.173,0.537,1.75,0.822c0.802,0.396,0.836,0.565,0.77,1.436c-0.049,0.659,0.04,1.326,0.075,1.99
			c0.166,3.228,0.307,6.458,0.509,9.684c0.289,4.617,0.639,9.231,0.932,13.848c0.189,2.973,0.368,5.948,0.472,8.924
			c0.172,4.908,0.386,9.819,0.383,14.728c-0.003,4.624-0.134,9.254-0.439,13.869c-0.734,11.105-2.691,22.021-6.414,32.639
			c-4.437,12.652-11.192,24.173-20.165,34.598c-1.819,2.113-3.765,4.135-5.657,6.195c-0.219,0.239-0.466,0.455-0.796,0.775
			c-0.134-0.332-0.252-0.573-0.329-0.826c-2.138-7.017-4.04-14.09-5.528-21.245c-1.346-6.467-2.582-12.957-3.691-19.462
			c-0.81-4.753-1.42-9.539-1.962-14.326c-0.685-6.047-1.235-12.108-1.794-18.167c-0.233-2.525-0.365-5.058-0.495-7.59
			c-0.271-5.285-0.548-10.57-0.751-15.858c-0.148-3.863-0.204-7.73-0.26-11.595c-0.06-4.12-0.106-8.24-0.097-12.36
			c0.019-9.126,0.065-18.253,0.131-27.379c0.008-1.1-0.161-2.068-0.799-3.054c-1.482-2.291-2.199-4.842-2.563-7.472
			c-0.516-3.733-0.342-7.462,0.144-11.185c0.152-1.163,0.299-2.327,0.455-3.49c0.029-0.219,0.07-0.439,0.135-0.651
			c0.262-0.851,0.303-0.909-0.557-1.359c-0.704-0.369-0.895-0.853-0.911-1.542c-0.091-3.8-0.23-7.6-0.328-11.4
			c-0.172-6.652-0.332-13.305-0.487-19.958c-0.079-3.39-0.14-6.78-0.204-10.17c-0.073-3.834-0.145-7.667-0.209-11.501
			c-0.128-7.668-0.245-15.336-0.376-23.004c-0.074-4.341-0.164-8.681-0.247-13.022c-0.046-2.408-0.096-4.816-0.137-7.223
			c-0.019-1.083,0.36-1.611,1.459-2.027c0.444-0.168,0.905-0.298,1.359-0.446C60.423,40.749,60.448,40.689,60.472,40.628z"/>
	</g>
</g>
</svg>
